<?xml version="1.0" standalone="no"?>
<!DOCTYPE svg PUBLIC "-//W3C//DTD SVG 20010904//EN"
 "http://www.w3.org/TR/2001/REC-SVG-20010904/DTD/svg10.dtd">
<svg version="1.0" xmlns="http://www.w3.org/2000/svg"
 width="227.000000pt" height="227.000000pt" viewBox="0 0 227.000000 227.000000"
 preserveAspectRatio="xMidYMid meet">
<metadata>
Created by potrace 1.11, written by Peter Selinger 2001-2013
</metadata>
<g transform="translate(0.000000,227.000000) scale(0.100000,-0.100000)"
fill="#000000" stroke="none">
<path d="M939 2165 c-423 -80 -754 -414 -835 -842 -22 -118 -15 -335 14 -445
64 -237 214 -455 408 -594 87 -62 234 -130 349 -161 89 -23 118 -26 260 -26
141 0 172 3 256 25 395 106 680 407 770 813 8 36 13 119 13 210 -1 130 -5 163
-28 250 -32 121 -107 277 -174 365 -147 193 -358 334 -587 391 -107 27 -339
34 -446 14z m463 -204 c300 -102 515 -344 583 -655 26 -118 17 -312 -20 -426
-48 -150 -114 -257 -222 -363 -114 -112 -240 -182 -401 -223 -87 -23 -111 -25
-237 -21 -150 5 -247 28 -360 85 -324 163 -516 516 -475 872 38 318 240 587
536 710 121 50 180 60 349 57 139 -3 157 -6 247 -36z"/>
<path d="M1089 1940 c-72 -38 -208 -205 -185 -227 13 -14 78 32 138 96 55 58
60 62 55 36 -4 -17 -12 -122 -18 -234 -15 -276 -3 -393 47 -483 43 -76 63
-103 143 -189 l60 -66 -43 9 c-53 11 -141 7 -140 -7 3 -32 195 -90 257 -78 38
8 58 41 64 110 5 59 -15 133 -36 133 -19 0 -33 -43 -35 -101 0 -33 -2 -59 -3
-59 -1 0 -9 13 -18 30 -28 55 -163 206 -214 241 -39 26 -50 39 -47 54 20 88
30 234 31 440 l0 240 40 -49 c41 -49 108 -96 120 -84 24 24 -63 147 -131 185
-46 27 -40 27 -85 3z"/>
</g>
</svg>
